<svg xmlns="http://www.w3.org/2000/svg" xmlns:xlink="http://www.w3.org/1999/xlink" width="900" zoomAndPan="magnify" viewBox="0 0 675 225" height="300" preserveAspectRatio="xMidYMid meet" version="1.0"><defs><g/><clipPath id="a56ee5bc27"><path d="M 536.117188 106 L 672 106 L 672 211.550781 L 536.117188 211.550781 Z M 536.117188 106 " clip-rule="nonzero"/></clipPath><clipPath id="6441a51841"><path d="M 653 70.207031 L 673 70.207031 L 673 92 L 653 92 Z M 653 70.207031 " clip-rule="nonzero"/></clipPath></defs><g fill="#ffffff" fill-opacity="1"><g transform="translate(2.277974, 205.476841)"><g><path d="M 26.8125 0 L 26.8125 -116.15625 L 0 -116.15625 L 0 -132.71875 L 26.8125 -132.71875 L 26.8125 -159 C 26.8125 -170.5625 30.359375 -179.800781 37.453125 -186.71875 C 44.546875 -193.644531 53.960938 -197.109375 65.703125 -197.109375 C 77.085938 -197.109375 86.375 -194 93.5625 -187.78125 C 100.75 -181.5625 104.953125 -173.28125 106.171875 -162.9375 L 88.5625 -155.578125 C 87.863281 -162.765625 85.5 -168.546875 81.46875 -172.921875 C 77.4375 -177.304688 72.53125 -179.5 66.75 -179.5 C 60.789062 -179.5 55.972656 -177.351562 52.296875 -173.0625 C 48.617188 -168.769531 46.78125 -162.941406 46.78125 -155.578125 L 46.78125 -132.71875 L 97.234375 -132.71875 L 97.234375 -116.15625 L 46.78125 -116.15625 L 46.78125 0 Z M 26.8125 0 "/></g></g></g><g fill="#ffffff" fill-opacity="1"><g transform="translate(108.447038, 205.476841)"><g><path d="M 53.34375 4.203125 C 40.5625 4.203125 30.445312 0.257812 23 -7.625 C 15.550781 -15.507812 11.828125 -26.546875 11.828125 -40.734375 L 11.828125 -132.71875 L 32.0625 -132.71875 L 32.0625 -42.3125 C 32.0625 -33.195312 34.46875 -26.054688 39.28125 -20.890625 C 44.101562 -15.722656 50.804688 -13.140625 59.390625 -13.140625 C 70.609375 -13.140625 79.632812 -16.6875 86.46875 -23.78125 C 93.300781 -30.875 96.71875 -40.378906 96.71875 -52.296875 L 96.71875 -132.71875 L 116.6875 -132.71875 L 116.6875 0 L 98.5625 0 L 96.71875 -18.390625 L 96.453125 -18.390625 C 92.066406 -11.210938 86.238281 -5.648438 78.96875 -1.703125 C 71.695312 2.234375 63.15625 4.203125 53.34375 4.203125 Z M 53.34375 4.203125 "/></g></g></g><g fill="#ffffff" fill-opacity="1"><g transform="translate(238.267645, 205.476841)"><g><path d="M 13.140625 0 L 13.140625 -193.171875 L 33.109375 -193.171875 L 33.109375 0 Z M 13.140625 0 "/></g></g></g><g fill="#ffffff" fill-opacity="1"><g transform="translate(284.519524, 205.476841)"><g><path d="M 73.84375 4.46875 C 60.707031 4.46875 49.1875 1.488281 39.28125 -4.46875 C 29.382812 -10.425781 21.675781 -18.835938 16.15625 -29.703125 C 10.644531 -40.566406 7.890625 -53.269531 7.890625 -67.8125 C 7.890625 -81.820312 10.382812 -94.039062 15.375 -104.46875 C 20.363281 -114.894531 27.367188 -122.953125 36.390625 -128.640625 C 45.421875 -134.335938 55.976562 -137.1875 68.0625 -137.1875 C 79.800781 -137.1875 89.960938 -134.335938 98.546875 -128.640625 C 107.140625 -122.953125 113.84375 -114.894531 118.65625 -104.46875 C 123.476562 -94.039062 125.890625 -81.734375 125.890625 -67.546875 C 125.890625 -65.960938 125.890625 -64.46875 125.890625 -63.0625 C 125.890625 -61.664062 125.800781 -60.53125 125.625 -59.65625 L 28.390625 -59.65625 C 29.429688 -45.8125 34.023438 -34.6875 42.171875 -26.28125 C 50.328125 -17.875 60.800781 -13.671875 73.59375 -13.671875 C 82.875 -13.671875 90.972656 -16.078125 97.890625 -20.890625 C 104.816406 -25.710938 109.769531 -32.148438 112.75 -40.203125 L 129.828125 -32.59375 C 126.148438 -21.195312 119.273438 -12.171875 109.203125 -5.515625 C 99.128906 1.140625 87.34375 4.46875 73.84375 4.46875 Z M 28.390625 -77.265625 L 104.59375 -77.265625 C 103.71875 -90.410156 100.082031 -100.617188 93.6875 -107.890625 C 87.289062 -115.160156 78.75 -118.796875 68.0625 -118.796875 C 56.851562 -118.796875 47.785156 -115.070312 40.859375 -107.625 C 33.941406 -100.175781 29.785156 -90.054688 28.390625 -77.265625 Z M 28.390625 -77.265625 "/></g></g></g><g fill="#ffffff" fill-opacity="1"><g transform="translate(420.384401, 205.476841)"><g><path d="M 2.625 0 L 44.9375 -68.859375 L 5.25 -132.71875 L 27.59375 -132.71875 L 57.296875 -82.515625 L 86.984375 -132.71875 L 109.0625 -132.71875 L 69.375 -68.859375 L 111.703125 0 L 89.09375 0 L 57.296875 -54.921875 L 24.96875 0 Z M 2.625 0 "/></g></g></g><path fill="#f3786a" d="M 609.117188 73.042969 C 610.351562 73.203125 611.550781 73.316406 612.726562 73.539062 C 614.65625 73.898438 616.578125 74.292969 618.488281 74.742188 C 621.191406 75.378906 623.824219 76.257812 626.414062 77.25 C 627.613281 77.714844 628.800781 78.203125 629.96875 78.75 C 631.617188 79.527344 633.265625 80.320312 634.871094 81.1875 C 637.542969 82.625 640.105469 84.261719 642.519531 86.105469 C 644.074219 87.289062 645.652344 88.464844 647.117188 89.761719 C 648.847656 91.289062 650.488281 92.914062 652.113281 94.554688 C 653.097656 95.546875 653.992188 96.632812 654.894531 97.707031 C 655.671875 98.640625 656.40625 99.613281 657.15625 100.570312 C 657.265625 100.703125 657.371094 100.84375 657.472656 100.96875 C 660.113281 97.046875 661.957031 92.789062 663.375 88.3125 C 663.269531 88.953125 663.203125 89.597656 663.050781 90.222656 C 662.460938 92.660156 661.890625 95.101562 661.214844 97.515625 C 660.363281 100.550781 659.203125 103.480469 657.917969 106.363281 C 656.566406 109.398438 654.984375 112.304688 653.238281 115.132812 C 651.78125 117.492188 650.191406 119.753906 648.453125 121.914062 C 647.589844 122.988281 646.660156 124.011719 645.785156 125.078125 C 645.085938 125.933594 644.4375 126.828125 643.75 127.695312 C 643.179688 128.414062 642.621094 129.152344 641.992188 129.816406 C 640.285156 131.628906 638.582031 133.453125 636.796875 135.195312 C 635.386719 136.570312 633.867188 137.839844 632.386719 139.144531 C 629.609375 141.585938 626.609375 143.734375 623.488281 145.707031 C 621.910156 146.707031 620.292969 147.636719 618.652344 148.535156 C 617.148438 149.355469 615.621094 150.144531 614.058594 150.839844 C 612.183594 151.675781 610.289062 152.484375 608.355469 153.152344 C 606.0625 153.9375 603.730469 154.625 601.382812 155.234375 C 599.699219 155.679688 597.976562 155.980469 596.253906 156.257812 C 594.644531 156.515625 593.023438 156.675781 591.40625 156.847656 C 590.472656 156.945312 589.535156 157.003906 588.597656 157.039062 C 587.167969 157.09375 585.738281 157.164062 584.316406 157.128906 C 582.59375 157.089844 580.867188 157.023438 579.15625 156.835938 C 576.039062 156.5 572.945312 156.035156 569.878906 155.339844 C 566.9375 154.675781 564.03125 153.886719 561.238281 152.761719 C 558.621094 151.710938 556.164062 150.332031 553.894531 148.640625 C 552.792969 147.824219 551.742188 146.925781 550.699219 146.03125 C 550.003906 145.4375 549.3125 144.828125 548.71875 144.140625 C 547.539062 142.777344 546.390625 141.382812 545.296875 139.949219 C 543.871094 138.078125 542.785156 135.996094 541.808594 133.863281 C 540.742188 131.539062 539.941406 129.113281 539.429688 126.609375 C 539.175781 125.375 538.996094 124.125 538.847656 122.875 C 538.730469 121.867188 538.699219 120.84375 538.644531 119.824219 C 538.601562 118.945312 538.523438 118.0625 538.554688 117.183594 C 538.648438 114.648438 539.167969 112.199219 540.183594 109.859375 C 541.136719 107.667969 542.277344 105.578125 543.667969 103.636719 C 544.996094 101.78125 546.335938 99.933594 547.738281 98.140625 C 548.75 96.855469 549.84375 95.636719 550.953125 94.4375 C 552.222656 93.070312 553.503906 91.707031 554.867188 90.445312 C 556.234375 89.171875 557.683594 87.980469 559.152344 86.828125 C 560.484375 85.777344 561.878906 84.804688 563.277344 83.84375 C 565.957031 82.003906 568.828125 80.5 571.765625 79.125 C 574.417969 77.882812 577.132812 76.761719 579.953125 75.957031 C 582.664062 75.183594 585.394531 74.476562 588.140625 73.851562 C 589.691406 73.5 591.285156 73.34375 592.867188 73.15625 C 594.300781 72.984375 595.742188 72.878906 597.179688 72.765625 C 597.925781 72.703125 598.679688 72.695312 599.429688 72.664062 C 600.242188 72.628906 601.0625 72.558594 601.875 72.574219 C 603.40625 72.605469 604.941406 72.675781 606.472656 72.765625 C 607.339844 72.820312 608.203125 72.953125 609.113281 73.046875 Z M 609.117188 73.042969 " fill-opacity="1" fill-rule="nonzero"/><g clip-path="url(#a56ee5bc27)"><path fill="#f3786a" d="M 670.984375 144.191406 C 670.917969 145.640625 670.925781 147.054688 670.777344 148.449219 C 670.546875 150.597656 670.304688 152.757812 669.894531 154.878906 C 669.421875 157.304688 668.847656 159.726562 668.148438 162.101562 C 667.460938 164.425781 666.636719 166.71875 665.734375 168.964844 C 664.6875 171.574219 663.5 174.128906 662.007812 176.527344 C 660.824219 178.4375 659.667969 180.367188 658.414062 182.230469 C 657.5 183.589844 656.488281 184.886719 655.445312 186.152344 C 654.304688 187.542969 653.09375 188.875 651.882812 190.203125 C 651.042969 191.128906 650.203125 192.066406 649.273438 192.898438 C 647.652344 194.34375 646.011719 195.769531 644.296875 197.097656 C 642.535156 198.46875 640.707031 199.761719 638.851562 201 C 637.523438 201.890625 636.117188 202.667969 634.71875 203.441406 C 633.476562 204.128906 632.222656 204.796875 630.929688 205.375 C 629.027344 206.226562 627.121094 207.089844 625.15625 207.769531 C 622.6875 208.625 620.171875 209.355469 617.648438 210.039062 C 616.121094 210.453125 614.546875 210.71875 612.988281 210.984375 C 611.402344 211.253906 609.804688 211.457031 608.210938 211.660156 C 607.375 211.765625 606.53125 211.832031 605.6875 211.855469 C 603.746094 211.910156 601.800781 211.960938 599.859375 211.949219 C 598.503906 211.9375 597.144531 211.875 595.792969 211.753906 C 594.136719 211.609375 592.488281 211.429688 590.847656 211.175781 C 587.847656 210.710938 584.867188 210.148438 581.980469 209.207031 C 579.464844 208.390625 576.921875 207.617188 574.492188 206.597656 C 571.972656 205.539062 569.554688 204.246094 567.128906 202.972656 C 565.699219 202.222656 564.3125 201.378906 562.980469 200.464844 C 561.125 199.1875 559.304688 197.859375 557.542969 196.464844 C 556.148438 195.359375 554.84375 194.136719 553.523438 192.945312 C 552.6875 192.1875 551.84375 191.429688 551.085938 190.59375 C 549.625 188.976562 548.167969 187.34375 546.8125 185.636719 C 545.4375 183.898438 544.097656 182.117188 542.898438 180.25 C 541.574219 178.1875 540.332031 176.058594 539.226562 173.875 C 538.101562 171.648438 537.191406 169.3125 536.191406 167.023438 C 536.148438 166.925781 536.140625 166.8125 536.117188 166.707031 C 561.792969 178.109375 587.402344 178.230469 612.957031 166.398438 C 638.125 153.761719 654.03125 133.679688 661.136719 106.472656 C 661.566406 107.21875 662.007812 107.933594 662.394531 108.683594 C 663.277344 110.40625 664.203125 112.109375 664.980469 113.882812 C 665.863281 115.902344 666.648438 117.96875 667.394531 120.046875 C 668.40625 122.835938 669.101562 125.71875 669.707031 128.617188 C 670.015625 130.082031 670.222656 131.570312 670.394531 133.054688 C 670.605469 134.855469 670.738281 136.660156 670.886719 138.460938 C 670.945312 139.210938 670.953125 139.964844 670.988281 140.710938 C 671.015625 141.238281 671.082031 141.761719 671.078125 142.289062 C 671.078125 142.910156 671.019531 143.53125 670.988281 144.199219 Z M 670.984375 144.191406 " fill-opacity="1" fill-rule="nonzero"/></g><g clip-path="url(#6441a51841)"><path fill="#f3786a" d="M 658.320312 80.679688 C 659.421875 79.832031 660.5 79.003906 661.554688 78.148438 C 662.320312 77.527344 663.078125 76.890625 663.789062 76.214844 C 665.175781 74.898438 666.542969 73.5625 667.890625 72.207031 C 668.5 71.597656 669.050781 70.9375 669.628906 70.300781 C 669.65625 70.269531 669.707031 70.265625 669.816406 70.222656 C 669.746094 77.554688 670.40625 84.753906 672.722656 91.816406 C 672.464844 91.605469 672.257812 91.4375 672.054688 91.265625 C 671.835938 91.085938 671.617188 90.898438 671.402344 90.714844 C 669.902344 89.410156 668.402344 88.109375 666.910156 86.800781 C 666.070312 86.066406 665.246094 85.316406 664.402344 84.59375 C 664.257812 84.46875 664.050781 84.367188 663.867188 84.363281 C 661.441406 84.316406 659.019531 84.300781 656.59375 84.25 C 655.417969 84.226562 654.246094 84.160156 653.140625 84.113281 C 654.824219 82.992188 656.554688 81.839844 658.320312 80.679688 Z M 658.320312 80.679688 " fill-opacity="1" fill-rule="nonzero"/></g></svg>