<svg xmlns="http://www.w3.org/2000/svg" xmlns:xlink="http://www.w3.org/1999/xlink" width="900" zoomAndPan="magnify" viewBox="0 0 675 225" height="300" preserveAspectRatio="xMidYMid meet" version="1.0"><defs><g/><clipPath id="d4cc23a8f2"><path d="M 536.117188 106 L 672 106 L 672 211.957031 L 536.117188 211.957031 Z M 536.117188 106 " clip-rule="nonzero"/></clipPath><clipPath id="281ed39453"><path d="M 653 70.207031 L 672.617188 70.207031 L 672.617188 92 L 653 92 Z M 653 70.207031 " clip-rule="nonzero"/></clipPath></defs><g fill="#000000" fill-opacity="1"><g transform="translate(2.277974, 205.476831)"><g><path d="M 26.8125 0 L 26.8125 -116.15625 L 0 -116.15625 L 0 -132.71875 L 26.8125 -132.71875 L 26.8125 -159 C 26.8125 -170.5625 30.359375 -179.800781 37.453125 -186.71875 C 44.546875 -193.644531 53.960938 -197.109375 65.703125 -197.109375 C 77.085938 -197.109375 86.375 -194 93.5625 -187.78125 C 100.75 -181.5625 104.953125 -173.28125 106.171875 -162.9375 L 88.5625 -155.578125 C 87.863281 -162.765625 85.5 -168.546875 81.46875 -172.921875 C 77.4375 -177.304688 72.53125 -179.5 66.75 -179.5 C 60.789062 -179.5 55.972656 -177.351562 52.296875 -173.0625 C 48.617188 -168.769531 46.78125 -162.941406 46.78125 -155.578125 L 46.78125 -132.71875 L 97.234375 -132.71875 L 97.234375 -116.15625 L 46.78125 -116.15625 L 46.78125 0 Z M 26.8125 0 "/></g></g></g><g fill="#000000" fill-opacity="1"><g transform="translate(108.447031, 205.476831)"><g><path d="M 53.34375 4.203125 C 40.5625 4.203125 30.445312 0.257812 23 -7.625 C 15.550781 -15.507812 11.828125 -26.546875 11.828125 -40.734375 L 11.828125 -132.71875 L 32.0625 -132.71875 L 32.0625 -42.3125 C 32.0625 -33.195312 34.46875 -26.054688 39.28125 -20.890625 C 44.101562 -15.722656 50.804688 -13.140625 59.390625 -13.140625 C 70.609375 -13.140625 79.632812 -16.6875 86.46875 -23.78125 C 93.300781 -30.875 96.71875 -40.378906 96.71875 -52.296875 L 96.71875 -132.71875 L 116.6875 -132.71875 L 116.6875 0 L 98.5625 0 L 96.71875 -18.390625 L 96.453125 -18.390625 C 92.066406 -11.210938 86.238281 -5.648438 78.96875 -1.703125 C 71.695312 2.234375 63.15625 4.203125 53.34375 4.203125 Z M 53.34375 4.203125 "/></g></g></g><g fill="#000000" fill-opacity="1"><g transform="translate(238.267629, 205.476831)"><g><path d="M 13.140625 0 L 13.140625 -193.171875 L 33.109375 -193.171875 L 33.109375 0 Z M 13.140625 0 "/></g></g></g><g fill="#000000" fill-opacity="1"><g transform="translate(284.519505, 205.476831)"><g><path d="M 73.84375 4.46875 C 60.707031 4.46875 49.1875 1.488281 39.28125 -4.46875 C 29.382812 -10.425781 21.675781 -18.835938 16.15625 -29.703125 C 10.644531 -40.566406 7.890625 -53.269531 7.890625 -67.8125 C 7.890625 -81.820312 10.382812 -94.039062 15.375 -104.46875 C 20.363281 -114.894531 27.367188 -122.953125 36.390625 -128.640625 C 45.421875 -134.335938 55.976562 -137.1875 68.0625 -137.1875 C 79.800781 -137.1875 89.960938 -134.335938 98.546875 -128.640625 C 107.140625 -122.953125 113.84375 -114.894531 118.65625 -104.46875 C 123.476562 -94.039062 125.890625 -81.734375 125.890625 -67.546875 C 125.890625 -65.960938 125.890625 -64.46875 125.890625 -63.0625 C 125.890625 -61.664062 125.800781 -60.53125 125.625 -59.65625 L 28.390625 -59.65625 C 29.429688 -45.8125 34.023438 -34.6875 42.171875 -26.28125 C 50.328125 -17.875 60.800781 -13.671875 73.59375 -13.671875 C 82.875 -13.671875 90.972656 -16.078125 97.890625 -20.890625 C 104.816406 -25.710938 109.769531 -32.148438 112.75 -40.203125 L 129.828125 -32.59375 C 126.148438 -21.195312 119.273438 -12.171875 109.203125 -5.515625 C 99.128906 1.140625 87.34375 4.46875 73.84375 4.46875 Z M 28.390625 -77.265625 L 104.59375 -77.265625 C 103.71875 -90.410156 100.082031 -100.617188 93.6875 -107.890625 C 87.289062 -115.160156 78.75 -118.796875 68.0625 -118.796875 C 56.851562 -118.796875 47.785156 -115.070312 40.859375 -107.625 C 33.941406 -100.175781 29.785156 -90.054688 28.390625 -77.265625 Z M 28.390625 -77.265625 "/></g></g></g><g fill="#000000" fill-opacity="1"><g transform="translate(420.384373, 205.476831)"><g><path d="M 2.625 0 L 44.9375 -68.859375 L 5.25 -132.71875 L 27.59375 -132.71875 L 57.296875 -82.515625 L 86.984375 -132.71875 L 109.0625 -132.71875 L 69.375 -68.859375 L 111.703125 0 L 89.09375 0 L 57.296875 -54.921875 L 24.96875 0 Z M 2.625 0 "/></g></g></g><path fill="#f3786a" d="M 609.113281 73.042969 C 610.347656 73.203125 611.546875 73.316406 612.722656 73.539062 C 614.648438 73.902344 616.574219 74.296875 618.484375 74.742188 C 621.1875 75.378906 623.820312 76.257812 626.410156 77.253906 C 627.605469 77.714844 628.796875 78.207031 629.960938 78.753906 C 631.613281 79.527344 633.257812 80.320312 634.863281 81.1875 C 637.535156 82.628906 640.097656 84.261719 642.511719 86.105469 C 644.066406 87.289062 645.644531 88.464844 647.109375 89.761719 C 648.839844 91.292969 650.480469 92.917969 652.105469 94.554688 C 653.089844 95.546875 653.984375 96.632812 654.886719 97.707031 C 655.664062 98.640625 656.398438 99.613281 657.148438 100.570312 C 657.257812 100.703125 657.363281 100.84375 657.464844 100.96875 C 660.105469 97.042969 661.949219 92.789062 663.367188 88.3125 C 663.261719 88.953125 663.195312 89.597656 663.042969 90.222656 C 662.453125 92.660156 661.882812 95.101562 661.207031 97.515625 C 660.355469 100.550781 659.195312 103.480469 657.910156 106.363281 C 656.558594 109.398438 654.976562 112.304688 653.230469 115.132812 C 651.773438 117.492188 650.183594 119.753906 648.445312 121.914062 C 647.582031 122.988281 646.652344 124.011719 645.78125 125.078125 C 645.082031 125.929688 644.429688 126.828125 643.742188 127.695312 C 643.171875 128.414062 642.613281 129.148438 641.984375 129.816406 C 640.277344 131.628906 638.574219 133.449219 636.789062 135.191406 C 635.378906 136.570312 633.863281 137.839844 632.378906 139.140625 C 629.601562 141.582031 626.601562 143.730469 623.484375 145.703125 C 621.90625 146.703125 620.289062 147.636719 618.648438 148.53125 C 617.144531 149.351562 615.613281 150.140625 614.050781 150.835938 C 612.179688 151.675781 610.285156 152.480469 608.347656 153.148438 C 606.058594 153.9375 603.726562 154.621094 601.378906 155.230469 C 599.695312 155.675781 597.972656 155.976562 596.25 156.253906 C 594.644531 156.511719 593.019531 156.671875 591.402344 156.84375 C 590.46875 156.941406 589.53125 157 588.59375 157.035156 C 587.164062 157.089844 585.738281 157.160156 584.3125 157.125 C 582.589844 157.085938 580.863281 157.019531 579.152344 156.832031 C 576.035156 156.496094 572.945312 156.03125 569.875 155.335938 C 566.933594 154.671875 564.03125 153.886719 561.238281 152.757812 C 558.621094 151.707031 556.164062 150.328125 553.894531 148.640625 C 552.789062 147.820312 551.738281 146.925781 550.695312 146.027344 C 550.003906 145.4375 549.3125 144.824219 548.71875 144.136719 C 547.539062 142.773438 546.390625 141.378906 545.296875 139.945312 C 543.871094 138.074219 542.785156 135.992188 541.808594 133.863281 C 540.742188 131.539062 539.941406 129.113281 539.429688 126.605469 C 539.175781 125.371094 538.996094 124.125 538.847656 122.875 C 538.730469 121.863281 538.699219 120.84375 538.644531 119.824219 C 538.601562 118.941406 538.523438 118.0625 538.554688 117.183594 C 538.648438 114.648438 539.167969 112.199219 540.183594 109.859375 C 541.136719 107.664062 542.277344 105.578125 543.667969 103.636719 C 544.992188 101.78125 546.335938 99.933594 547.738281 98.140625 C 548.75 96.855469 549.84375 95.636719 550.953125 94.4375 C 552.21875 93.070312 553.503906 91.710938 554.863281 90.445312 C 556.234375 89.171875 557.679688 87.980469 559.152344 86.828125 C 560.484375 85.777344 561.878906 84.804688 563.277344 83.847656 C 565.953125 82.003906 568.824219 80.5 571.761719 79.125 C 574.417969 77.882812 577.128906 76.761719 579.949219 75.960938 C 582.660156 75.183594 585.390625 74.476562 588.140625 73.851562 C 589.6875 73.5 591.28125 73.34375 592.863281 73.15625 C 594.296875 72.988281 595.738281 72.878906 597.175781 72.765625 C 597.921875 72.707031 598.675781 72.695312 599.425781 72.664062 C 600.238281 72.632812 601.058594 72.558594 601.871094 72.574219 C 603.402344 72.605469 604.9375 72.675781 606.46875 72.769531 C 607.335938 72.824219 608.199219 72.953125 609.109375 73.050781 Z M 609.113281 73.042969 " fill-opacity="1" fill-rule="nonzero"/><g clip-path="url(#d4cc23a8f2)"><path fill="#f3786a" d="M 670.976562 144.1875 C 670.910156 145.640625 670.917969 147.050781 670.765625 148.445312 C 670.535156 150.59375 670.296875 152.753906 669.886719 154.875 C 669.414062 157.300781 668.839844 159.722656 668.140625 162.097656 C 667.453125 164.421875 666.628906 166.714844 665.726562 168.960938 C 664.679688 171.566406 663.492188 174.125 662 176.523438 C 660.816406 178.433594 659.660156 180.359375 658.40625 182.222656 C 657.492188 183.582031 656.480469 184.878906 655.4375 186.148438 C 654.296875 187.535156 653.085938 188.867188 651.875 190.199219 C 651.035156 191.125 650.195312 192.058594 649.265625 192.890625 C 647.648438 194.339844 646.003906 195.761719 644.292969 197.09375 C 642.527344 198.464844 640.699219 199.753906 638.84375 200.996094 C 637.515625 201.882812 636.109375 202.660156 634.710938 203.433594 C 633.472656 204.121094 632.214844 204.789062 630.921875 205.367188 C 629.023438 206.21875 627.117188 207.082031 625.152344 207.765625 C 622.683594 208.617188 620.167969 209.347656 617.644531 210.03125 C 616.117188 210.445312 614.542969 210.710938 612.984375 210.976562 C 611.394531 211.246094 609.800781 211.449219 608.207031 211.652344 C 607.371094 211.757812 606.527344 211.824219 605.683594 211.847656 C 603.742188 211.902344 601.796875 211.953125 599.855469 211.941406 C 598.5 211.929688 597.140625 211.867188 595.789062 211.746094 C 594.136719 211.601562 592.484375 211.421875 590.84375 211.167969 C 587.847656 210.703125 584.863281 210.140625 581.976562 209.199219 C 579.464844 208.382812 576.921875 207.613281 574.488281 206.589844 C 571.96875 205.53125 569.550781 204.238281 567.128906 202.964844 C 565.695312 202.214844 564.3125 201.371094 562.976562 200.457031 C 561.125 199.179688 559.304688 197.851562 557.542969 196.457031 C 556.144531 195.355469 554.84375 194.132812 553.523438 192.9375 C 552.6875 192.179688 551.839844 191.421875 551.085938 190.589844 C 549.625 188.96875 548.167969 187.339844 546.8125 185.632812 C 545.4375 183.894531 544.097656 182.109375 542.898438 180.246094 C 541.574219 178.183594 540.332031 176.054688 539.226562 173.867188 C 538.101562 171.640625 537.191406 169.304688 536.191406 167.019531 C 536.148438 166.921875 536.140625 166.808594 536.117188 166.703125 C 561.792969 178.105469 587.398438 178.222656 612.953125 166.394531 C 638.121094 153.757812 654.023438 133.675781 661.128906 106.46875 C 661.554688 107.21875 662 107.933594 662.386719 108.679688 C 663.269531 110.40625 664.195312 112.109375 664.972656 113.882812 C 665.855469 115.902344 666.636719 117.96875 667.386719 120.046875 C 668.398438 122.832031 669.09375 125.714844 669.699219 128.617188 C 670.007812 130.082031 670.214844 131.566406 670.386719 133.054688 C 670.597656 134.851562 670.730469 136.65625 670.878906 138.457031 C 670.9375 139.207031 670.941406 139.960938 670.980469 140.710938 C 671.003906 141.234375 671.070312 141.757812 671.070312 142.285156 C 671.070312 142.90625 671.011719 143.527344 670.980469 144.195312 Z M 670.976562 144.1875 " fill-opacity="1" fill-rule="nonzero"/></g><g clip-path="url(#281ed39453)"><path fill="#f3786a" d="M 658.3125 80.679688 C 659.414062 79.835938 660.492188 79.007812 661.546875 78.148438 C 662.3125 77.527344 663.066406 76.890625 663.78125 76.214844 C 665.167969 74.902344 666.535156 73.5625 667.882812 72.210938 C 668.492188 71.601562 669.042969 70.9375 669.621094 70.300781 C 669.644531 70.269531 669.699219 70.269531 669.808594 70.222656 C 669.734375 77.554688 670.394531 84.753906 672.714844 91.816406 C 672.457031 91.605469 672.25 91.4375 672.046875 91.265625 C 671.828125 91.085938 671.609375 90.898438 671.394531 90.714844 C 669.894531 89.410156 668.394531 88.109375 666.902344 86.800781 C 666.0625 86.070312 665.238281 85.320312 664.394531 84.59375 C 664.25 84.46875 664.042969 84.367188 663.859375 84.363281 C 661.433594 84.316406 659.011719 84.300781 656.585938 84.253906 C 655.410156 84.230469 654.238281 84.160156 653.132812 84.113281 C 654.816406 82.992188 656.546875 81.839844 658.3125 80.679688 Z M 658.3125 80.679688 " fill-opacity="1" fill-rule="nonzero"/></g></svg>